<svg xmlns="http://www.w3.org/2000/svg" width="256" height="256"><path fill-opacity=".016" d="M0 128.004v128.004l128.25-.254 128.25-.254.254-127.75L257.008 0H0v128.004m.485.496c0 70.4.119 99.053.265 63.672.146-35.38.146-92.98 0-128C.604 29.153.485 58.1.485 128.5" fill="#1976D2" fill-rule="evenodd"/><path fill-opacity=".462" d="M91 9.5V19h73V0H91v9.5m21.583 27.607C84.08 41.264 57.419 57.094 39.904 80.26c-7.328 9.693-15.897 26.966-18.971 38.24-3.113 11.418-3.858 36.598-1.435 48.524 4.573 22.515 15.146 41.596 32.166 58.051 42.811 41.389 108.861 41.389 151.672 0 17.247-16.674 28.016-36.296 32.217-58.703 2.58-13.759 1.628-38.875-1.92-50.66-3.915-13.001-12.949-29.837-20.259-37.752l-2.345-2.539 7.486-7.435c4.117-4.09 7.485-7.884 7.485-8.432C226 58.213 214.841 47 213.506 47c-.581 0-4.355 3.321-8.387 7.38l-7.33 7.38-6.145-4.644c-21.436-16.202-52.047-23.949-79.061-20.009M116 55.598c-17.285 3.191-26.966 6.695-37.715 13.65-19.331 12.51-33.292 31.742-38.967 53.682-2.847 11.008-3.486 29.859-1.387 40.959 5.261 27.831 24.97 52.848 51.225 65.022 13.599 6.305 19.994 7.567 38.344 7.567s24.745-1.262 38.344-7.567c26.255-12.174 45.964-37.191 51.225-65.022 2.099-11.1 1.46-29.951-1.387-40.959-8.234-31.833-33.677-57.223-65.182-65.049-7.732-1.92-28.882-3.32-34.5-2.283m2 63.902V155h19V84h-19v35.5" fill="#1976D2" fill-rule="evenodd"/><path fill-opacity=".311" d="M91 9v9h73V0H91v9m26.5 28.186c-41.665 2.86-80.565 33.967-94.415 75.5-5.898 17.685-6.606 42.007-1.762 60.52 10.177 38.895 40.611 68.952 80.507 79.509 8.355 2.21 11.778 2.562 25.17 2.583 10.748.017 17.674-.471 22.593-1.59 41.257-9.39 73.218-39.959 84.165-80.502 2.391-8.852 2.619-11.333 2.595-28.206-.022-15.784-.344-19.674-2.191-26.5-2.827-10.448-10.449-26.003-17.596-35.908l-5.705-7.908 7.563-7.608 7.564-7.608-6.228-6.228-6.228-6.228-7.692 7.647-7.692 7.647-6.324-4.734c-8.629-6.459-26.529-15.026-36.824-17.624-10.485-2.646-24.328-3.666-37.5-2.762m-10.893 19.828c-9.252 1.95-22.107 7.508-30.366 13.13-6.852 4.663-18.766 16.388-23.823 23.445-5.685 7.932-10.846 18.929-13.568 28.911-3.143 11.524-3.148 35.439-.011 47 8.823 32.507 34.574 57.794 66.86 65.656 12.302 2.996 31.3 2.996 43.602 0 32.286-7.862 58.037-33.149 66.86-65.656 3.137-11.561 3.132-35.476-.011-47-4.479-16.424-12.53-29.814-25.291-42.065-8.926-8.569-14.258-12.279-25.18-17.52-16.051-7.702-39.436-10.038-59.072-5.901m11.63 62.736.263 34.75h18l.263-34.75.263-34.75h-19.052l.263 34.75" fill="#1976D2" fill-rule="evenodd"/><path fill-opacity=".978" d="M91 9.5V18h73V1H91v8.5m17.334 28.981C62.862 46.732 26.337 84.337 19.446 130c-1.819 12.053-1.811 20.003.036 32.252 7.421 49.236 48.836 88.417 97.922 92.641 51.095 4.397 97.67-26.365 114.122-75.377 7.973-23.749 6.614-54.673-3.372-76.733-3.456-7.635-12.143-21.559-15.147-24.276-1.104-.999-2.007-2.3-2.007-2.89 0-.59 3.377-4.469 7.503-8.62l7.504-7.548-6.28-6.224-6.279-6.223-7.449 7.499c-4.097 4.124-7.774 7.499-8.171 7.499-.397 0-3.69-2.246-7.317-4.992-7.147-5.409-19.385-11.67-29.164-14.919-14.709-4.888-37.436-6.435-53.013-3.608M116 54.973c-38.787 4.94-70.581 34.229-78.412 72.235-3.088 14.985-1.699 35.768 3.356 50.226 7.666 21.924 26.98 42.856 48.582 52.651 12.121 5.495 21.456 7.326 37.474 7.35 8.489.012 16.987-.531 20.5-1.311 29.758-6.608 56.631-30.305 66.556-58.69 5.055-14.458 6.444-35.241 3.356-50.226-6.998-33.959-34.395-62.391-67.611-70.164-9.865-2.308-24.771-3.222-33.801-2.071m3 64.527V154h17V85h-17v34.5" fill="#1976D2" fill-rule="evenodd"/></svg>